<?xml version="1.0" encoding="UTF-8"?>
<svg id="Layer_1" xmlns="http://www.w3.org/2000/svg" version="1.1" viewBox="0 0 800 800">
  <!-- Generator: Adobe Illustrator 30.0.0, SVG Export Plug-In . SVG Version: 2.1.1 Build 4)  -->
  <defs>
    <style>
      .st0 {
        fill: #1f5058;
        fill-rule: evenodd;
      }
    </style>
  </defs>
  <path class="st0" d="M374.93,66.67C210.31,78.87,78.87,210.31,66.67,374.93l190.81,7.36c8.43,0,15.27,7.93,15.27,17.71s-6.84,17.71-15.27,17.71l-190.81,7.36c12.21,164.62,143.64,296.06,308.26,308.26l7.02-191.05c0-8.42,8.08-15.24,18.05-15.24s18.05,6.83,18.05,15.24l7.02,191.05c164.62-12.21,296.06-143.64,308.26-308.26l-190.81-7.36c-8.43,0-15.27-7.93-15.27-17.71s6.84-17.71,15.27-17.71l190.81-7.36c-12.21-164.62-143.64-296.06-308.26-308.26l-7.02,191.05c0,8.42-8.08,15.24-18.05,15.24s-18.05-6.83-18.05-15.24l-7.02-191.05h0ZM308.08,400c0-13.85,11.22-25.07,25.07-25.07h41.78v-41.78c0-13.85,11.22-25.07,25.07-25.07s25.07,11.22,25.07,25.07v41.78h41.78c13.84,0,25.07,11.22,25.07,25.07s-11.22,25.07-25.07,25.07h-41.78v41.78c0,13.84-11.22,25.07-25.07,25.07s-25.07-11.22-25.07-25.07v-41.78h-41.78c-13.85,0-25.07-11.22-25.07-25.07Z"/>
</svg>