<?xml version="1.0" encoding="UTF-8"?>
<svg id="Layer_1" xmlns="http://www.w3.org/2000/svg" version="1.1" viewBox="0 0 800 800">
  <!-- Generator: Adobe Illustrator 30.0.0, SVG Export Plug-In . SVG Version: 2.1.1 Build 4)  -->
  <defs>
    <style>
      .st0 {
        fill: #1f5058;
      }
    </style>
  </defs>
  <path class="st0" d="M374.67,317.4c-6.45-1.6-10.56-1.78-17.03-.02-4.79,1.3-52.51,32.49-52.51,35.69,27.34,17.32,115.84,137.92,142.11,132.21l58.16-39.34c-31.16-19.76-103.15-121.71-130.73-128.54Z"/>
  <path class="st0" d="M684.59,115.41c-48.74-48.74-127.19-48.74-284.09-48.74s-235.35,0-284.09,48.74c-48.74,48.74-48.74,127.19-48.74,284.09,0,27.24,0,52.12.26,74.89l1.2,49.92c3.24,77.9,13.66,125.65,47.29,159.28,48.74,48.74,127.19,48.74,284.09,48.74s235.35,0,284.09-48.74c33.63-33.62,44.05-81.38,47.29-159.28l1.2-49.92c.26-22.77.26-47.65.26-74.89,0-156.9,0-235.35-48.74-284.09ZM639.66,428.57c-10.74,11.42-89.72,51.33-109.63,61.47-14.09,7.19-64.91,35.47-75.62,35.89-58.76,2.26-103.49-79.3-144.42-111.77,11,45.85,44.65,124.72,25.57,169.87-11.2,26.51-115.2,70.14-142.95,89.24v-70.89c0-39.44-38.58-113.25-43.45-156.94-2.3-20.6-2.85-49.4,11.36-65.8l196.04-112.03c53.93,5.53,89.52,46.58,124.44,83.01-5.39-42.41-33.91-92.81-15.79-135.64,11-25.99,116-69.1,142.95-89.24,2.02,22.53-2.77,48.94,0,70.89,5.95,47.14,37.74,108.38,43.47,156.96,2.53,21.48,3.55,58.5-11.96,74.99Z"/>
</svg>