<?xml version="1.0" encoding="UTF-8"?>
<svg id="Layer_4" data-name="Layer 4" xmlns="http://www.w3.org/2000/svg" viewBox="0 0 395.14 395.14">
  <defs>
    <style>
      .cls-1 {
        stroke-width: 0px;
      }
    </style>
  </defs>
  <path class="cls-1" d="m245.91,145.32l-57.49.04v118.89s49.16.14,56.94-.04c7.78-.19,45.92-8.33,45.92-59.91s-45.36-58.98-45.36-58.98Z"/>
  <path class="cls-1" d="m197.57,0C88.46,0,0,88.46,0,197.57s88.46,197.57,197.57,197.57,197.57-88.46,197.57-197.57S306.69,0,197.57,0Zm-66.56,286.27h-25.65V121.95h25.65v164.32Zm-12.7-181.71c-8.91,0-16.13-7.22-16.13-16.13s7.22-16.13,16.13-16.13,16.13,7.22,16.13,16.13-7.22,16.13-16.13,16.13Zm129.78,181.02c-10.67.25-84.06,0-84.06,0V122.53h84.83s66.79,10.16,66.79,80.89-56.89,81.9-67.56,82.16Z"/>
</svg>