<?xml version="1.0" encoding="utf-8"?>
<!-- Generator: Adobe Illustrator 27.8.1, SVG Export Plug-In . SVG Version: 6.00 Build 0)  -->
<svg version="1.1" id="Layer_1" xmlns="http://www.w3.org/2000/svg" xmlns:xlink="http://www.w3.org/1999/xlink" x="0px" y="0px"
	 viewBox="0 0 512 512" style="enable-background:new 0 0 512 512;" xml:space="preserve">
<style type="text/css">
	.st0{fill:#FFFFFF;}
</style>
<g>
	<path d="M242.67,25.6c10.78,0,21.56,0,32.34,0c7.23,0.97,14.5,1.71,21.68,2.96c42.17,7.36,80.06,24.34,112.01,52.89
		c63.36,56.6,89.58,127.58,76.87,211.52c-8.89,58.78-38.21,106.91-85.11,143.43c-56.08,43.67-119.7,58.06-189.28,44.1
		c-44.22-8.87-82.33-30.05-114.28-61.86c-34.22-34.08-55.89-74.96-64.44-122.6c-1.45-8.06-2.41-16.22-3.59-24.33
		c0-10.78,0-21.56,0-32.34c0.3-1.45,0.69-2.89,0.89-4.35c1.08-7.68,1.73-15.44,3.22-23.04c8.86-45.35,29.5-84.62,61.92-117.51
		c34.23-34.72,75.38-56.66,123.47-65.28C226.44,27.76,234.57,26.79,242.67,25.6z M105.91,255.24
		c-0.29,84.43,67.92,152.92,152.61,153.24c84.42,0.31,152.96-67.95,153.24-152.62c0.28-84.46-67.93-152.94-152.62-153.22
		C174.69,102.35,106.21,170.55,105.91,255.24z"/>
	<path class="st0" d="M28.89,271.72c1.18,8.11,2.14,16.26,3.59,24.33c8.56,47.64,30.22,88.52,64.44,122.6
		c31.94,31.81,70.05,52.99,114.28,61.86c69.57,13.95,133.19-0.44,189.28-44.1c46.9-36.52,76.21-84.65,85.11-143.43
		c12.7-83.94-13.52-154.92-76.87-211.52c-31.96-28.55-69.84-45.52-112.01-52.89c-7.18-1.25-14.45-1.99-21.68-2.96
		c71.56,0,143.12,0,214.68,0c0,153.6,0,307.2,0,460.8c-153.6,0-307.2,0-460.8,0C28.89,414.84,28.89,343.28,28.89,271.72z"/>
	<path class="st0" d="M242.67,25.6c-8.1,1.19-16.23,2.16-24.28,3.6c-48.09,8.62-89.24,30.55-123.47,65.28
		C62.5,127.37,41.86,166.64,33,211.99c-1.49,7.6-2.14,15.36-3.22,23.04c-0.21,1.46-0.59,2.9-0.89,4.35c0-71.19,0-142.37,0-213.78
		C100.15,25.6,171.41,25.6,242.67,25.6z"/>
	<path class="st0" d="M105.91,255.24c0.3-84.69,68.78-152.89,153.23-152.61c84.69,0.28,152.9,68.77,152.62,153.22
		c-0.28,84.67-68.82,152.93-153.24,152.62C173.83,408.16,105.62,339.67,105.91,255.24z M301.89,287.6c2.27-21.52,2.31-42.77-0.02-64
		c-28.98,0-57.47,0-86.11,0c-2.24,21.49-2.26,42.64,0.05,64C244.49,287.6,272.88,287.6,301.89,287.6z M298.76,199.56
		c-5-23.56-10.42-46.28-25.82-65.11c-1.04-1.27-2.27-2.39-3.5-3.48c-7.23-6.37-14.11-6.61-21.1,0.06
		c-3.95,3.77-7.43,8.23-10.34,12.86c-7.3,11.61-11.62,24.51-15.01,37.72c-1.5,5.83-2.68,11.74-4.08,17.95
		C245.82,199.56,271.82,199.56,298.76,199.56z M219.45,311.55c2.14,18.57,11.82,49.43,24.16,63.81c1.55,1.81,3.23,3.55,5.05,5.1
		c7.01,5.97,13.85,6.27,20.37-0.21c4.71-4.68,8.88-10.14,12.24-15.87c7.71-13.11,11.89-27.64,15.26-42.38
		c0.77-3.38,1.34-6.81,2.04-10.44C271.76,311.55,245.76,311.55,219.45,311.55z M133.47,223.5c-5.36,21.54-5.4,42.75,0.02,64.02
		c19.55,0,38.78,0,57.64,0c0-21.47,0-42.63,0-64.02C172.17,223.5,153.06,223.5,133.47,223.5z M326.54,223.52
		c0,21.63,0,42.68,0,64.02c18.89,0,38.13,0,57.65,0c5.38-21.43,5.44-42.72-0.05-64.02C364.57,223.52,345.46,223.52,326.54,223.52z
		 M301.02,377.99c34.02-12.79,58.31-34.49,74.48-66.37c-18.05,0-35.31,0-52.76,0C318.64,334.48,312.77,356.59,301.02,377.99z
		 M215.62,134.04c-33.08,11.9-57.32,33.61-73.44,65.42c18.08,0,35.33,0,52.75,0C199.03,176.69,204.81,154.69,215.62,134.04z
		 M301.98,133.98c10.98,20.71,16.61,42.91,20.82,65.55c17.57,0,34.71,0,52.72,0C359.37,167.63,335.08,145.93,301.98,133.98z
		 M142.7,311.54c8.94,25.87,50.37,62.68,73.38,65.35c-11.32-20.47-17.04-42.63-21.21-65.35C177.36,311.54,160.2,311.54,142.7,311.54
		z"/>
	<path d="M301.89,287.6c-29.01,0-57.39,0-86.08,0c-2.31-21.36-2.29-42.51-0.05-64c28.64,0,57.13,0,86.11,0
		C304.2,244.83,304.16,266.08,301.89,287.6z"/>
	<path d="M298.76,199.56c-26.94,0-52.94,0-79.86,0c1.4-6.21,2.58-12.12,4.08-17.95c3.39-13.2,7.71-26.11,15.01-37.72
		c2.92-4.64,6.39-9.09,10.34-12.86c6.99-6.67,13.87-6.43,21.1-0.06c1.23,1.09,2.46,2.21,3.5,3.48
		C288.34,153.28,293.76,176.01,298.76,199.56z"/>
	<path d="M219.45,311.55c26.31,0,52.32,0,79.12,0c-0.7,3.63-1.27,7.06-2.04,10.44c-3.37,14.75-7.55,29.27-15.26,42.38
		c-3.37,5.73-7.53,11.19-12.24,15.87c-6.52,6.48-13.36,6.18-20.37,0.21c-1.81-1.55-3.49-3.28-5.05-5.1
		C231.27,360.99,221.59,330.13,219.45,311.55z"/>
	<path d="M133.47,223.5c19.58,0,38.69,0,57.66,0c0,21.38,0,42.55,0,64.02c-18.85,0-38.09,0-57.64,0
		C128.07,266.25,128.11,245.05,133.47,223.5z"/>
	<path d="M326.54,223.52c18.92,0,38.03,0,57.6,0c5.49,21.3,5.43,42.59,0.05,64.02c-19.52,0-38.75,0-57.65,0
		C326.54,266.2,326.54,245.14,326.54,223.52z"/>
	<path d="M301.02,377.99c11.75-21.39,17.63-43.5,21.72-66.37c17.45,0,34.7,0,52.76,0C359.32,343.5,335.04,365.2,301.02,377.99z"/>
	<path d="M215.62,134.04c-10.81,20.65-16.59,42.65-20.69,65.42c-17.42,0-34.67,0-52.75,0C158.3,167.65,182.54,145.94,215.62,134.04z
		"/>
	<path d="M301.98,133.98c33.09,11.95,57.38,33.65,73.54,65.55c-18.01,0-35.15,0-52.72,0C318.59,176.89,312.97,154.69,301.98,133.98z
		"/>
	<path d="M142.7,311.54c17.5,0,34.65,0,52.17,0c4.17,22.72,9.89,44.88,21.21,65.35C193.07,374.22,151.64,337.41,142.7,311.54z"/>
</g>
</svg>
