<?xml version="1.0" encoding="UTF-8"?>
<svg id="Layer_3" data-name="Layer 3" xmlns="http://www.w3.org/2000/svg" viewBox="0 0 435.47 440.76">
  <defs>
    <style>
      .cls-1 {
        stroke-width: 0px;
      }
    </style>
  </defs>
  <path class="cls-1" d="m435.47,170.33L218.71,0,0,170.33l98.21,86.47c-7.02,16.09-10.93,33.85-10.93,52.53,0,72.59,58.84,131.43,131.43,131.43s131.43-58.84,131.43-131.43c0-18.94-4.01-36.95-11.23-53.22l96.56-85.78Zm-214.34,239.1c-56.29,0-101.93-45.63-101.93-101.93s45.63-101.93,101.93-101.93c25.92,0,49.58,9.68,67.57,25.62l-28.95,29.74c-10.48-8.7-23.94-13.93-38.62-13.93-33.41,0-60.5,27.09-60.5,60.5s27.09,60.5,60.5,60.5c26.06,0,48.76-12.64,52.65-39.58h-52.65v-39.76h57.48l37.05.54c1.18,6.19,2.56,17.12,2.56,23.66,0,56.29-40.79,96.56-97.09,96.56Z"/>
</svg>