<?xml version="1.0" encoding="UTF-8"?>
<svg id="Layer_1" xmlns="http://www.w3.org/2000/svg" version="1.1" viewBox="0 0 800 800">
  <!-- Generator: Adobe Illustrator 30.0.0, SVG Export Plug-In . SVG Version: 2.1.1 Build 4)  -->
  <defs>
    <style>
      .st0 {
        fill: #1f5058;
      }

      .st1 {
        fill: #fff;
      }
    </style>
  </defs>
  <path class="st0" d="M793.19,674.81L443.19,74.8c-8.96-15.36-25.4-24.8-43.19-24.8s-34.23,9.45-43.19,24.8L6.81,674.81c-9.02,15.47-9.08,34.57-.17,50.1,8.92,15.53,25.45,25.1,43.36,25.1h700c17.91,0,34.44-9.57,43.36-25.1,8.91-15.53,8.85-34.63-.17-50.1Z"/>
  <rect class="st1" x="321" y="526" width="56.34" height="150.86" rx="28.17" ry="28.17"/>
  <rect class="st1" x="170.81" y="658.1" width="458.39" height="20.48"/>
  <rect class="st1" x="405.67" y="298.19" width="56.34" height="379.24" rx="28.17" ry="28.17"/>
  <rect class="st1" x="504.5" y="430.38" width="56.34" height="248.19" rx="28.17" ry="28.17"/>
  <rect class="st1" x="600.35" y="606.38" width="56.34" height="72.19" rx="28.17" ry="28.17"/>
  <rect class="st1" x="142.63" y="606.38" width="56.34" height="72.19" rx="28.17" ry="28.17"/>
  <rect class="st1" x="232.67" y="447.52" width="56.34" height="229.9" rx="28.17" ry="28.17"/>
</svg>