<?xml version="1.0" encoding="utf-8"?>
<!-- Generator: Adobe Illustrator 28.0.0, SVG Export Plug-In . SVG Version: 6.00 Build 0)  -->
<svg version="1.1" id="Layer_4" xmlns="http://www.w3.org/2000/svg" xmlns:xlink="http://www.w3.org/1999/xlink" x="0px" y="0px"
	 viewBox="0 0 395.1 395.1" style="enable-background:new 0 0 395.1 395.1;" xml:space="preserve">
<path d="M245.1,157.3l-50.2,0v94.9c0,0,42.9,0.1,49.7,0c6.8-0.2,40.1-6.7,40.1-47.8S245.2,157.3,245.1,157.3L245.1,157.3z"/>
<path d="M197.6,0C88.5,0,0,88.5,0,197.6s88.5,197.6,197.6,197.6s197.6-88.5,197.6-197.6S306.7,0,197.6,0z M105.4,286.3V121.9h42.4
	v164.3 M126.6,113.4c-12.9,0-23.3-9.8-23.3-22s10.4-22,23.3-22s23.3,9.8,23.3,22S139.4,113.4,126.6,113.4z M248.1,285.6
	c-10.7,0.2-84.1,0-84.1,0v-163h84.8c0,0,66.8,10.2,66.8,80.9S258.8,285.3,248.1,285.6L248.1,285.6z"/>
</svg>
