<?xml version="1.0" encoding="UTF-8"?>
<svg width="285px" height="375px" viewBox="0 0 285 375" version="1.1" xmlns="http://www.w3.org/2000/svg" xmlns:xlink="http://www.w3.org/1999/xlink">
    <!-- Generator: Sketch 57.1 (83088) - https://sketch.com -->
    <title>Group 7 dark</title>
    <desc>Created with Sketch.</desc>
    <defs>
        <linearGradient x1="-21.0291571%" y1="0%" x2="98.9882218%" y2="100%" id="linearGradient-1">
            <stop stop-color="#22025E" offset="0%"></stop>
            <stop stop-color="#A30DC6" offset="100%"></stop>
        </linearGradient>
        <path d="M228.929725,67.7103872 C207.099566,145.613514 172.708228,178.949792 149.686218,201.823414 C132.486167,137.79541 101.39287,57.2038502 61.7375223,14.7549834 C35.9549738,-8.79440339 26.9656423,-0.622367012 16.6166019,14.7549834 C-19.0226727,67.7103872 11.4452648,275.262547 26.8473141,275.262547 C76.0330902,275.262547 39.0141297,233.517564 77.689413,231.459552 C113.630449,229.54781 129.440812,279.175911 155.619184,285.392364 C156.758453,285.507917 157.850984,285.465499 158.90992,285.392364 C159.606627,285.452335 160.304795,285.507917 161.004424,285.507917 C161.471816,285.507917 161.883706,285.32508 162.25762,285.016452 C189.816261,280.846309 178.911307,260.986375 214.750101,262.542683 C253.253034,264.21308 256.225335,295 271.918202,295 C287.61107,295 304.014065,115.585648 279.441728,71.857127 C265.364445,46.1502653 242.767469,34.7602607 228.929725,67.7103872 Z" id="path-2"></path>
        <linearGradient x1="50%" y1="27.9142497%" x2="46.8786065%" y2="77.4662177%" id="linearGradient-4">
            <stop stop-color="#FF4F00" offset="0%"></stop>
            <stop stop-color="#FF2700" stop-opacity="0.233554121" offset="100%"></stop>
        </linearGradient>
    </defs>
    <g id="Page-1" stroke="none" stroke-width="1" fill="none" fill-rule="evenodd">
        <g id="Desktop-Branding" transform="translate(-1315.000000, -709.000000)">
            <g id="Group-15" transform="translate(215.000000, 259.000000)">
                <g id="Group-7-dark" transform="translate(1100.000000, 450.000000)">
                    <g id="Group-2">
                        <mask id="mask-3" fill="white">
                            <use xlink:href="#path-2"></use>
                        </mask>
                        <use id="Mask" fill="url(#linearGradient-1)" xlink:href="#path-2"></use>
                        <path d="M26.8945312,-9.08203125 C28.626363,-42.0404018 56.2162067,-24.6354539 109.664062,43.1328125 L158.105469,171.917969 L150.128906,201.917969 C103.785156,162.152344 62.7070312,91.8190104 26.8945312,-9.08203125 Z" id="Rectangle" fill="url(#linearGradient-4)" mask="url(#mask-3)"></path>
                    </g>
                    <path d="M29.21,337 L31.25,313.37 L36.18,313.37 L40.226,326.936 C41.008,329.588 41.552,331.696 42.232,334.518 L42.3,334.518 C42.946,331.73 43.49,329.52 44.238,326.936 L48.284,313.37 L53.248,313.37 L55.288,337 L51.922,337 L50.868,322.89 C50.698,320.306 50.596,318.164 50.494,315.546 L50.426,315.512 C49.746,318.062 49.134,320.306 48.386,322.89 L44.272,337 L40.09,337 L35.976,322.89 C35.262,320.34 34.582,318.028 33.902,315.546 L33.868,315.546 C33.766,318.028 33.664,320.306 33.46,322.89 L32.406,337 L29.21,337 Z M73.624,328.568 C73.624,335.538 70.836,337.476 66.178,337.476 C61.486,337.476 58.902,335.742 58.902,328.704 C58.902,321.734 61.656,319.83 66.314,319.83 C70.972,319.83 73.624,321.53 73.624,328.568 Z M70.462,328.67 C70.462,323.298 69,322.244 66.212,322.244 C63.458,322.244 62.03,323.298 62.03,328.602 C62.03,333.974 63.492,335.028 66.28,335.028 C69.034,335.028 70.462,334.008 70.462,328.67 Z M77.85,337 L77.85,311.908 L81.012,311.908 L81.012,337 L77.85,337 Z M97.682,334.314 L97.954,336.66 C96.22,337.068 94.486,337.34 92.514,337.34 C87.992,337.34 85.272,335.946 85.272,328.704 C85.272,321.734 88.094,319.83 92.48,319.83 C96.866,319.83 98.77,321.394 98.77,327.548 C98.77,328.16 98.736,328.704 98.702,329.384 L88.4,329.384 C88.468,334.178 89.93,334.892 93.092,334.892 C94.758,334.892 96.084,334.654 97.682,334.314 Z M88.434,327.276 L95.88,327.276 C95.846,323.128 94.792,322.21 92.344,322.21 C89.93,322.21 88.57,323.23 88.434,327.276 Z M112.924,334.382 L113.196,336.728 C111.972,337.068 110.408,337.34 109.048,337.34 C104.356,337.34 102.044,335.572 102.044,328.704 C102.044,321.802 104.968,319.966 109.286,319.966 C110.68,319.966 112.108,320.204 113.332,320.51 L113.026,322.856 C111.904,322.55 110.748,322.38 109.49,322.38 C106.872,322.38 105.172,323.332 105.172,328.636 C105.172,333.804 106.532,334.892 109.524,334.892 C110.544,334.892 111.802,334.688 112.924,334.382 Z M116.572,320.272 L119.734,320.272 L119.734,331.254 C119.734,333.906 120.618,334.79 122.59,334.79 C124.018,334.79 125.65,334.11 127.588,332.886 L127.588,320.272 L130.716,320.272 L130.716,337 L128.132,337 L127.928,335.232 C125.854,336.49 123.814,337.34 121.638,337.34 C118.17,337.34 116.572,335.674 116.572,331.798 L116.572,320.272 Z M135.962,337 L135.962,311.908 L139.124,311.908 L139.124,337 L135.962,337 Z M152.836,327.004 L152.836,325.304 C152.836,323.332 151.884,322.38 149.64,322.38 C148.008,322.38 146.546,322.652 144.948,322.992 L144.642,320.646 C146.444,320.238 148.212,319.966 150.184,319.966 C154.4,319.966 155.998,321.632 155.998,325.134 L155.998,337 L153.414,337 L153.21,335.436 C151.51,336.456 149.946,337.34 147.804,337.34 C145.084,337.34 143.078,335.776 143.078,332.512 C143.078,329.01 145.254,327.004 151.306,327.004 L152.836,327.004 Z M152.836,329.112 L151.476,329.112 C147.192,329.112 145.934,330.166 145.934,332.274 C145.934,334.178 146.988,334.96 148.45,334.96 C149.946,334.96 151.17,334.314 152.836,333.226 L152.836,329.112 Z M160.972,337 L160.972,320.272 L163.59,320.272 L163.794,322.142 C165.324,320.952 166.752,319.83 168.282,319.83 C168.826,319.83 169.234,319.932 169.608,320.136 L169.166,323.026 C168.758,322.822 168.316,322.72 167.772,322.72 C166.82,322.72 165.698,323.366 164.134,324.42 L164.134,337 L160.972,337 Z M184.724,337 L184.724,315.954 L177.89,315.954 L177.89,313.37 L194.72,313.37 L194.72,315.954 L187.92,315.954 L187.92,337 L184.724,337 Z M194.9,320.272 L198.062,320.272 L198.062,331.254 C198.062,333.906 198.946,334.79 200.918,334.79 C202.346,334.79 203.978,334.11 205.916,332.886 L205.916,320.272 L209.044,320.272 L209.044,337 L206.46,337 L206.256,335.232 C204.182,336.49 202.142,337.34 199.966,337.34 C196.498,337.34 194.9,335.674 194.9,331.798 L194.9,320.272 Z M214.29,337 L214.29,320.272 L216.908,320.272 L217.112,322.04 C219.186,320.816 221.09,319.966 223.13,319.966 C225.578,319.966 226.7,320.952 227.346,322.21 C229.692,320.782 231.596,319.966 233.636,319.966 C236.9,319.966 238.464,321.598 238.464,325.474 L238.464,337 L235.336,337 L235.336,326.018 C235.336,323.366 234.452,322.516 232.684,322.516 C231.392,322.516 229.896,323.162 227.822,324.454 C227.924,324.896 227.958,325.27 227.958,325.95 L227.958,337 L224.796,337 L224.796,326.018 C224.796,323.366 223.912,322.516 222.212,322.516 C220.886,322.516 219.39,323.162 217.452,324.386 L217.452,337 L214.29,337 Z M257.208,328.568 C257.208,335.538 254.42,337.476 249.762,337.476 C245.07,337.476 242.486,335.742 242.486,328.704 C242.486,321.734 245.24,319.83 249.898,319.83 C254.556,319.83 257.208,321.53 257.208,328.568 Z M254.046,328.67 C254.046,323.298 252.584,322.244 249.796,322.244 C247.042,322.244 245.614,323.298 245.614,328.602 C245.614,333.974 247.076,335.028 249.864,335.028 C252.618,335.028 254.046,334.008 254.046,328.67 Z M261.434,337 L261.434,320.272 L264.052,320.272 L264.256,322.142 C265.786,320.952 267.214,319.83 268.744,319.83 C269.288,319.83 269.696,319.932 270.07,320.136 L269.628,323.026 C269.22,322.822 268.778,322.72 268.234,322.72 C267.282,322.72 266.16,323.366 264.596,324.42 L264.596,337 L261.434,337 Z M29.992,374 L29.992,350.37 L36.52,350.37 C42.402,350.37 44.714,351.594 44.714,355.912 C44.714,359.006 43.286,360.672 41.008,361.454 C43.388,361.862 45.428,363.426 45.428,367.098 C45.428,371.722 42.776,374 36.724,374 L29.992,374 Z M33.188,371.552 L36.86,371.552 C40.838,371.552 42.198,370.124 42.198,367.2 C42.198,364.31 41.008,362.984 36.52,362.984 L33.188,362.984 L33.188,371.552 Z M33.188,360.57 L36.486,360.57 C39.682,360.57 41.552,359.55 41.552,356.388 C41.552,353.498 40.226,352.818 36.418,352.818 L33.188,352.818 L33.188,360.57 Z M63.526,365.568 C63.526,372.538 60.738,374.476 56.08,374.476 C51.388,374.476 48.804,372.742 48.804,365.704 C48.804,358.734 51.558,356.83 56.216,356.83 C60.874,356.83 63.526,358.53 63.526,365.568 Z M60.364,365.67 C60.364,360.298 58.902,359.244 56.114,359.244 C53.36,359.244 51.932,360.298 51.932,365.602 C51.932,370.974 53.394,372.028 56.182,372.028 C58.936,372.028 60.364,371.008 60.364,365.67 Z M76.082,364.004 L76.082,362.304 C76.082,360.332 75.13,359.38 72.886,359.38 C71.254,359.38 69.792,359.652 68.194,359.992 L67.888,357.646 C69.69,357.238 71.458,356.966 73.43,356.966 C77.646,356.966 79.244,358.632 79.244,362.134 L79.244,374 L76.66,374 L76.456,372.436 C74.756,373.456 73.192,374.34 71.05,374.34 C68.33,374.34 66.324,372.776 66.324,369.512 C66.324,366.01 68.5,364.004 74.552,364.004 L76.082,364.004 Z M76.082,366.112 L74.722,366.112 C70.438,366.112 69.18,367.166 69.18,369.274 C69.18,371.178 70.234,371.96 71.696,371.96 C73.192,371.96 74.416,371.314 76.082,370.226 L76.082,366.112 Z M84.218,374 L84.218,357.272 L86.836,357.272 L87.04,359.142 C88.57,357.952 89.998,356.83 91.528,356.83 C92.072,356.83 92.48,356.932 92.854,357.136 L92.412,360.026 C92.004,359.822 91.562,359.72 91.018,359.72 C90.066,359.72 88.944,360.366 87.38,361.42 L87.38,374 L84.218,374 Z M105.444,374 L105.24,372.266 C103.404,373.456 101.704,374.34 99.732,374.34 C96.094,374.34 93.85,372.436 93.85,365.84 C93.85,359.21 97.114,356.966 100.922,356.966 C102.452,356.966 103.744,357.374 105.036,358.054 L105.07,358.02 C104.934,356.626 104.9,355.402 104.9,354.178 L104.9,348.908 L108.062,348.908 L108.062,374 L105.444,374 Z M104.9,369.954 L104.9,360.536 C103.642,359.822 102.622,359.414 101.33,359.414 C99.12,359.414 97.012,360.706 97.012,365.704 C97.012,370.702 98.304,371.79 100.548,371.79 C101.806,371.79 103.132,371.144 104.9,369.954 Z M121.716,374 L121.716,350.37 L128.278,350.37 C133.752,350.37 136.064,351.526 136.064,356.796 C136.064,361.964 133.548,364.004 127.904,364.004 L124.912,364.004 L124.912,374 L121.716,374 Z M124.912,361.522 L128.04,361.522 C131.406,361.522 132.902,360.23 132.902,356.932 C132.902,353.6 131.61,352.818 128.142,352.818 L124.912,352.818 L124.912,361.522 Z M152.462,365.568 C152.462,372.538 149.674,374.476 145.016,374.476 C140.324,374.476 137.74,372.742 137.74,365.704 C137.74,358.734 140.494,356.83 145.152,356.83 C149.81,356.83 152.462,358.53 152.462,365.568 Z M149.3,365.67 C149.3,360.298 147.838,359.244 145.05,359.244 C142.296,359.244 140.868,360.298 140.868,365.602 C140.868,370.974 142.33,372.028 145.118,372.028 C147.872,372.028 149.3,371.008 149.3,365.67 Z M156.688,374 L156.688,357.272 L159.306,357.272 L159.51,359.142 C161.04,357.952 162.468,356.83 163.998,356.83 C164.542,356.83 164.95,356.932 165.324,357.136 L164.882,360.026 C164.474,359.822 164.032,359.72 163.488,359.72 C162.536,359.72 161.414,360.366 159.85,361.42 L159.85,374 L156.688,374 Z M166.014,357.272 L168.53,357.272 L168.53,352.376 L171.658,351.934 L171.658,357.272 L175.466,357.272 L175.466,359.652 L171.658,359.652 L171.658,369.546 C171.658,371.28 172.202,371.858 173.494,371.858 C174.208,371.858 174.82,371.722 175.466,371.518 L175.772,373.83 C174.854,374.102 173.834,374.272 172.644,374.272 C169.618,374.272 168.53,373.116 168.53,370.328 L168.53,359.652 L166.014,359.652 L166.014,357.272 Z M187.478,364.004 L187.478,362.304 C187.478,360.332 186.526,359.38 184.282,359.38 C182.65,359.38 181.188,359.652 179.59,359.992 L179.284,357.646 C181.086,357.238 182.854,356.966 184.826,356.966 C189.042,356.966 190.64,358.632 190.64,362.134 L190.64,374 L188.056,374 L187.852,372.436 C186.152,373.456 184.588,374.34 182.446,374.34 C179.726,374.34 177.72,372.776 177.72,369.512 C177.72,366.01 179.896,364.004 185.948,364.004 L187.478,364.004 Z M187.478,366.112 L186.118,366.112 C181.834,366.112 180.576,367.166 180.576,369.274 C180.576,371.178 181.63,371.96 183.092,371.96 C184.588,371.96 185.812,371.314 187.478,370.226 L187.478,366.112 Z M195.614,374 L195.614,348.908 L198.776,348.908 L198.776,374 L195.614,374 Z" id="MolecularTumorBoardPortal" fill="#670795" fill-rule="nonzero"></path>
                </g>
            </g>
        </g>
    </g>
</svg>